<?xml version="1.0" encoding="utf-8"?>
<svg viewBox="0 0 300 100" xmlns="http://www.w3.org/2000/svg" xmlns:xlink="http://www.w3.org/1999/xlink" xmlns:bx="https://boxy-svg.com">
  <defs>
    <style bx:fonts="Open Sans">@import url(https://fonts.googleapis.com/css2?family=Open+Sans%3Aital%2Cwght%400%2C300%3B0%2C400%3B0%2C500%3B0%2C600%3B0%2C700%3B0%2C800%3B1%2C300%3B1%2C400%3B1%2C500%3B1%2C600%3B1%2C700%3B1%2C800&amp;display=swap);</style>
    <linearGradient id="color-0" bx:pinned="true">
      <stop style="stop-color: #12c2e9;" offset="0"/>
      <stop style="stop-color: #c471ed;" offset="0.5"/>
      <stop style="stop-color: #f64f59;" offset="1"/>
    </linearGradient>
    <linearGradient id="color-1" bx:pinned="true">
      <stop style="stop-color: #08d9d6;"/>
    </linearGradient>
    <linearGradient id="color-2" bx:pinned="true">
      <stop style="stop-color: #252a34;"/>
    </linearGradient>
    <linearGradient id="color-3" bx:pinned="true">
      <stop style="stop-color: #ff2e63;"/>
    </linearGradient>
    <linearGradient id="color-4" bx:pinned="true">
      <stop style="stop-color: #eaeaea;"/>
    </linearGradient>
    <linearGradient id="color-5" bx:pinned="true">
      <stop style="stop-color: #8e2de2;" offset="0"/>
      <stop style="stop-color: #4a00e0;" offset="1"/>
    </linearGradient>
    <linearGradient id="color-6" bx:pinned="true">
      <stop style="stop-color: #ff416c;" offset="0"/>
      <stop style="stop-color: #ff4b2b;" offset="1"/>
    </linearGradient>
    <linearGradient id="color-7" bx:pinned="true">
      <stop style="stop-color: #fc466b;" offset="0"/>
      <stop style="stop-color: #3f5efb;" offset="1"/>
    </linearGradient>
    <linearGradient id="color-8" bx:pinned="true">
      <stop style="stop-color: #11998e;" offset="0"/>
      <stop style="stop-color: #38ef7d;" offset="1"/>
    </linearGradient>
    <linearGradient id="color-9" bx:pinned="true">
      <stop style="stop-color: #f4c4f3;" offset="0"/>
      <stop style="stop-color: #fc67fa;" offset="1"/>
    </linearGradient>
    <radialGradient id="color-0-0" gradientUnits="userSpaceOnUse" cx="192.49" cy="49.841" r="78.407" gradientTransform="matrix(1.084013, 0, 0, 1.084013, -11.667343, -4.232868)" xlink:href="#color-0"/>
  </defs>
  <path d="M 34.92 92.886 L 85.086 92.886 C 87.798 92.886 90 90.684 90 87.966 L 90 12.234 C 90 9.516 87.798 7.314 85.086 7.314 L 34.92 7.314 C 32.202 7.314 30 9.516 30 12.234 L 30 87.966 C 30 90.684 32.202 92.886 34.92 92.886 Z M 81.534 86.85 C 79.902 86.85 78.582 85.53 78.582 83.898 C 78.582 82.266 79.902 80.946 81.534 80.946 C 83.166 80.946 84.486 82.266 84.486 83.898 C 84.486 85.53 83.166 86.85 81.534 86.85 Z M 81.534 14.004 C 83.166 14.004 84.486 15.318 84.486 16.95 C 84.486 18.588 83.166 19.902 81.534 19.902 C 79.902 19.902 78.582 18.588 78.582 16.95 C 78.582 15.318 79.902 14.004 81.534 14.004 Z M 60 16.206 C 72.75 16.206 83.088 26.544 83.088 39.288 C 83.088 52.038 72.75 62.376 60 62.376 C 57.996 62.376 56.046 62.118 54.186 61.638 L 58.524 54.282 C 59.814 52.098 57.348 49.62 55.164 50.916 L 45.102 56.85 C 45.078 56.856 45.072 56.868 45.06 56.88 C 40.086 52.65 36.924 46.332 36.924 39.288 C 36.918 26.544 47.256 16.206 60 16.206 Z M 39.06 14.004 C 40.692 14.004 42.012 15.318 42.012 16.95 C 42.012 18.588 40.692 19.902 39.06 19.902 C 37.428 19.902 36.108 18.588 36.108 16.95 C 36.108 15.318 37.428 14.004 39.06 14.004 Z M 39.06 80.946 C 40.692 80.946 42.012 82.266 42.012 83.898 C 42.012 85.53 40.692 86.85 39.06 86.85 C 37.428 86.85 36.108 85.53 36.108 83.898 C 36.108 82.272 37.428 80.946 39.06 80.946 Z" style="paint-order: stroke; stroke-width: 2px; stroke: rgb(0, 0, 0); fill: rgb(244, 196, 243);"/>
  <circle cx="60" cy="39.288" r="6.168" style="paint-order: stroke; stroke-width: 2px; stroke: rgb(0, 0, 0); fill: rgb(244, 196, 243);"/>
  <text style="fill: url(#color-0-0); font-family: &quot;Open Sans&quot;; font-size: 33.1px; font-weight: 700; stroke: rgb(0, 0, 0); white-space: pre;" x="112" y="62.836" bx:origin="0.496878 0.5">HomeDisk</text>
</svg>