<?xml version="1.0" encoding="utf-8"?>
<svg viewBox="0 0 260 100" xmlns="http://www.w3.org/2000/svg" xmlns:xlink="http://www.w3.org/1999/xlink" xmlns:bx="https://boxy-svg.com">
  <defs>
    <style bx:fonts="Open Sans">@import url(https://fonts.googleapis.com/css2?family=Open+Sans%3Aital%2Cwght%400%2C300%3B0%2C400%3B0%2C500%3B0%2C600%3B0%2C700%3B0%2C800%3B1%2C300%3B1%2C400%3B1%2C500%3B1%2C600%3B1%2C700%3B1%2C800&amp;display=swap);</style>
    <linearGradient id="color-0" bx:pinned="true">
      <stop style="stop-color: #12c2e9;" offset="0"/>
      <stop style="stop-color: #c471ed;" offset="0.5"/>
      <stop style="stop-color: #f64f59;" offset="1"/>
    </linearGradient>
    <linearGradient id="color-1" bx:pinned="true">
      <stop style="stop-color: #08d9d6;"/>
    </linearGradient>
    <linearGradient id="color-2" bx:pinned="true">
      <stop style="stop-color: #252a34;"/>
    </linearGradient>
    <linearGradient id="color-3" bx:pinned="true">
      <stop style="stop-color: #ff2e63;"/>
    </linearGradient>
    <linearGradient id="color-4" bx:pinned="true">
      <stop style="stop-color: #eaeaea;"/>
    </linearGradient>
    <linearGradient id="color-5" bx:pinned="true">
      <stop style="stop-color: #8e2de2;" offset="0"/>
      <stop style="stop-color: #4a00e0;" offset="1"/>
    </linearGradient>
    <linearGradient id="color-6" bx:pinned="true">
      <stop style="stop-color: #ff416c;" offset="0"/>
      <stop style="stop-color: #ff4b2b;" offset="1"/>
    </linearGradient>
    <linearGradient id="color-7" bx:pinned="true">
      <stop style="stop-color: #fc466b;" offset="0"/>
      <stop style="stop-color: #3f5efb;" offset="1"/>
    </linearGradient>
    <linearGradient id="color-8" bx:pinned="true">
      <stop style="stop-color: #11998e;" offset="0"/>
      <stop style="stop-color: #38ef7d;" offset="1"/>
    </linearGradient>
    <linearGradient id="color-9" bx:pinned="true">
      <stop style="stop-color: #f4c4f3;" offset="0"/>
      <stop style="stop-color: #fc67fa;" offset="1"/>
    </linearGradient>
    <radialGradient id="color-0-0" gradientUnits="userSpaceOnUse" cx="192.49" cy="49.841" r="78.407" gradientTransform="matrix(1.084013, 0, 0, 1.084013, -44.203743, -4.146132)" xlink:href="#color-0"/>
  </defs>
  <path d="M 9.92 92.886 L 60.086 92.886 C 62.798 92.886 65 90.684 65 87.966 L 65 12.234 C 65 9.516 62.798 7.314 60.086 7.314 L 9.92 7.314 C 7.202 7.314 5 9.516 5 12.234 L 5 87.966 C 5 90.684 7.202 92.886 9.92 92.886 Z M 56.534 86.85 C 54.902 86.85 53.582 85.53 53.582 83.898 C 53.582 82.266 54.902 80.946 56.534 80.946 C 58.166 80.946 59.486 82.266 59.486 83.898 C 59.486 85.53 58.166 86.85 56.534 86.85 Z M 56.534 14.004 C 58.166 14.004 59.486 15.318 59.486 16.95 C 59.486 18.588 58.166 19.902 56.534 19.902 C 54.902 19.902 53.582 18.588 53.582 16.95 C 53.582 15.318 54.902 14.004 56.534 14.004 Z M 35 16.206 C 47.75 16.206 58.088 26.544 58.088 39.288 C 58.088 52.038 47.75 62.376 35 62.376 C 32.996 62.376 31.046 62.118 29.186 61.638 L 33.524 54.282 C 34.814 52.098 32.348 49.62 30.164 50.916 L 20.102 56.85 C 20.078 56.856 20.072 56.868 20.06 56.88 C 15.086 52.65 11.924 46.332 11.924 39.288 C 11.918 26.544 22.256 16.206 35 16.206 Z M 14.06 14.004 C 15.692 14.004 17.012 15.318 17.012 16.95 C 17.012 18.588 15.692 19.902 14.06 19.902 C 12.428 19.902 11.108 18.588 11.108 16.95 C 11.108 15.318 12.428 14.004 14.06 14.004 Z M 14.06 80.946 C 15.692 80.946 17.012 82.266 17.012 83.898 C 17.012 85.53 15.692 86.85 14.06 86.85 C 12.428 86.85 11.108 85.53 11.108 83.898 C 11.108 82.272 12.428 80.946 14.06 80.946 Z" style="paint-order: stroke; stroke-width: 2px; stroke: rgb(0, 0, 0); fill: rgb(244, 196, 243);"/>
  <circle cx="35" cy="39.288" r="6.168" style="paint-order: stroke; stroke-width: 2px; stroke: rgb(0, 0, 0); fill: rgb(244, 196, 243);"/>
  <text style="fill: url(#color-0-0); font-family: &quot;Open Sans&quot;; font-size: 33.1px; font-weight: 700; stroke: rgb(0, 0, 0); white-space: pre;" x="79.464" y="62.922" bx:origin="0.496878 0.5">HomeDisk</text>
</svg>
